<svg xmlns="http://www.w3.org/2000/svg" viewBox="0 0 3200 1600"><path d="M3030.2 1312.2l-377.8-749.3H2465l-4 749.3h188.4l1.5-379.5 190.8 379.5h188.5zm-387.8-7H2468l3.9-728.5 172 342.2-1.5 386.3zm-409.3-576l-83.8-166.3h-187.4l269.2 535.6-1.1 213.7h188.4l3-749.3H2234l-.9 166.3zm-259.8-159.3H2145l81.9 162.5 6.1 13.3-1.8 337.3-257.9-513.1zm-231.3-7v1.9l-1.1 193.6.1.1-3 553.7h188.4l2.5-618.4.5-130.8v-.1H1742zm3 742.3l2.9-536.3 172.6 257.9-1.1 278.4H1745zm-276.2-620l.5-122.3h-187.4l-4 749.3h188.4l.9-213.5v-.1l245-535.7H1525l-56.2 122.3zm232.5-115.3l-234.1 511.8 1.5-379.7 6.4-13.9 54.3-118.2h171.9zm-651.1-7v1.9l-1.1 193.6.1.1-3 553.7h188.4l2.5-618.4.5-130.8v-.1h-187.4zm3 742.3l2.9-536.3 172.6 257.9-1.1 278.4h-174.4zM826.6 562.9l-4 749.3H1011l2.5-618.4.5-130.8v-.1H826.6zm3 742.3l2.9-536.5 172.6 258.1-1.1 278.4H829.6zM315.7 703.2l-145.9-24 49.5 428.3 313.2 296.3 288-1207.6-413.3 123.1-91.5 383.9zm-137.9-15.6L314.1 710l-90 377.6-46.3-400z"/></svg>