<?xml version="1.0" encoding="utf-8"?>
<!-- Generator: Adobe Illustrator 22.0.1, SVG Export Plug-In . SVG Version: 6.00 Build 0)  -->
<svg version="1.1" id="Livello_1" xmlns="http://www.w3.org/2000/svg" xmlns:xlink="http://www.w3.org/1999/xlink" x="0px" y="0px"
	 viewBox="0 0 3200 1600" style="enable-background:new 0 0 3200 1600;" xml:space="preserve">
<path d="M1468.7,702l-1.5,379.7l234.1-511.8l0,0h-171.9l-54.3,118.2L1468.7,702z M1919.4,1305.2l1.1-278.4l-172.6-257.9l-2.9,536.3
	l0,0H1919.4z M177.8,687.6l46.3,400l90-377.6L177.8,687.6z M1005.1,1026.8L832.5,768.7l-2.9,536.5H1004L1005.1,1026.8z
	 M1228.7,1026.8l-172.6-257.9l-2.9,536.3h174.4L1228.7,1026.8z M0,0v1600h3200V0H0z M532.5,1403.8l-313.2-296.3l-49.5-428.3
	l145.9,24l0,0l91.5-383.9l413.3-123.1L532.5,1403.8z M1014,563l-0.5,130.8l-2.5,618.4H822.6l4-749.3l0,0H1014V563z M1237.6,563
	l-0.5,130.8l-2.5,618.4h-188.4l3-553.7l-0.1-0.1l1.1-193.6v-1.9h187.4V563z M1467.2,1098.6L1467.2,1098.6l-0.9,213.6h-188.4l4-749.3
	h187.4l-0.5,122.3l0,0l56.2-122.3h187.2L1467.2,1098.6z M1929.4,563l-0.5,130.8l-2.5,618.4H1738l3-553.7l-0.1-0.1l1.1-193.6v-1.9
	l0,0h187.4V563z M2418.4,1312.2H2230l1.1-213.7l-269.2-535.6h187.4l83.8,166.3l0,0l0.9-166.3h187.4L2418.4,1312.2z M2841.7,1312.2
	l-190.8-379.5l-1.5,379.5H2461l4-749.3h187.4l377.8,749.3H2841.7z M2468,1305.2h174.4l1.5-386.3l-172-342.2L2468,1305.2z
	 M2145,569.9h-171.7l0,0l257.9,513.1l1.8-337.3l-6.1-13.3L2145,569.9z"/>
</svg>
