<?xml version="1.0" encoding="utf-8"?>
<!-- Generator: Adobe Illustrator 22.0.1, SVG Export Plug-In . SVG Version: 6.00 Build 0)  -->
<svg version="1.1" id="Livello_1" xmlns="http://www.w3.org/2000/svg" xmlns:xlink="http://www.w3.org/1999/xlink" x="0px" y="0px"
	 viewBox="0 0 3200 1600" style="enable-background:new 0 0 3200 1600;" xml:space="preserve">
<style type="text/css">
	.st0{fill:#FC074F;}
</style>
<path class="st0" d="M1475.1,688.1l54.3-118.2h171.9h0l-234.1,511.8l1.5-379.7L1475.1,688.1z M1919.4,1305.2l1.1-278.4l-172.6-257.9
	l-2.9,536.3h0H1919.4z M177.8,687.6l46.3,400l90-377.6L177.8,687.6L177.8,687.6z M1005.1,1026.8L832.5,768.7l-2.9,536.5H1004
	L1005.1,1026.8z M1228.7,1026.8l-172.6-257.9l-2.9,536.3h174.4L1228.7,1026.8z M3200,0v1600H0V0H3200z M820.5,196.2L407.2,319.3
	l-91.5,383.9v0l-145.9-24l49.5,428.3l313.2,296.3L820.5,196.2z M1014,562.9H826.6v0l-4,749.3H1011l2.5-618.4L1014,563V562.9z
	 M1237.6,562.9h-187.4v1.9l-1.1,193.6l0.1,0.1l-3,553.7h188.4l2.5-618.4l0.5-130.8V562.9z M1712.2,562.9H1525l-56.2,122.3h0
	l0.5-122.3h-187.4l-4,749.3h188.4l0.9-213.5v-0.1L1712.2,562.9z M1929.4,562.9H1742h0v1.9l-1.1,193.6l0.1,0.1l-3,553.7h188.4
	l2.5-618.4l0.5-130.8V562.9z M2421.4,562.9H2234l-0.9,166.3h0l-83.8-166.3h-187.4l269.2,535.6l-1.1,213.7h188.4L2421.4,562.9z
	 M3030.2,1312.2l-377.8-749.3H2465l-4,749.3h188.4l1.5-379.5l190.8,379.5H3030.2z M2468,1305.2h174.4l1.5-386.3l-172-342.2
	L2468,1305.2z M2145,569.9h-171.7l0,0l257.9,513.1l1.8-337.3l-6.1-13.3L2145,569.9z"/>
</svg>
